<svg xmlns="http://www.w3.org/2000/svg" xmlns:xlink="http://www.w3.org/1999/xlink" viewBox="0 0 406.11 357.22"><defs><style>.cls-1{fill:none;}.cls-2{fill:#fff;}.cls-3{clip-path:url(#clip-path);}.cls-4{fill:url(#linear-gradient);}.cls-5{clip-path:url(#clip-path-2);}.cls-6{fill:url(#linear-gradient-2);}.cls-7{clip-path:url(#clip-path-3);}.cls-8{fill:url(#linear-gradient-3);}.cls-9{clip-path:url(#clip-path-4);}.cls-10{fill:url(#linear-gradient-4);}.cls-11{clip-path:url(#clip-path-5);}.cls-12{fill:url(#linear-gradient-5);}.cls-13{clip-path:url(#clip-path-6);}.cls-14{fill:url(#linear-gradient-6);}</style><clipPath id="clip-path"><polygon class="cls-1" points="69.46 89.43 196.63 162.86 323.81 89.43 196.63 16 69.46 89.43"/></clipPath><linearGradient id="linear-gradient" x1="-119.31" y1="631.36" x2="-115.25" y2="631.36" gradientTransform="matrix(0, 36.41, 36.41, 0, -22788.36, 4360.05)" gradientUnits="userSpaceOnUse"><stop offset="0" stop-color="#e6e7e8"/><stop offset="1" stop-color="#808184"/></linearGradient><clipPath id="clip-path-2"><polygon class="cls-1" points="69.46 236.28 196.63 309.71 196.63 162.86 69.46 89.43 69.46 236.28"/></clipPath><linearGradient id="linear-gradient-2" x1="-114.99" y1="633.72" x2="-110.93" y2="633.72" gradientTransform="matrix(-31.32, 0, 0, 31.32, -3407.71, -19650.73)" xlink:href="#linear-gradient"/><clipPath id="clip-path-3"><polygon class="cls-1" points="196.63 162.86 196.63 309.71 323.81 236.28 323.81 89.43 196.63 162.86"/></clipPath><linearGradient id="linear-gradient-3" x1="-137.48" y1="637.14" x2="-133.42" y2="637.14" gradientTransform="matrix(0, -34.25, -34.25, 0, 22085.15, -4416.51)" xlink:href="#linear-gradient"/><clipPath id="clip-path-4"><polygon class="cls-1" points="105.2 110.07 196.62 162.86 288.05 110.07 196.62 57.29 105.2 110.07"/></clipPath><linearGradient id="linear-gradient-4" x1="-115.65" y1="630.83" x2="-111.59" y2="630.83" gradientTransform="matrix(0, 26.17, 26.17, 0, -16312.94, 3084.38)" gradientUnits="userSpaceOnUse"><stop offset="0" stop-color="#2cc1ed"/><stop offset="0.36" stop-color="#2cc1ed"/><stop offset="1" stop-color="#2e72a5"/></linearGradient><clipPath id="clip-path-5"><polygon class="cls-1" points="105.2 215.64 196.62 268.42 196.62 162.86 105.2 110.07 105.2 215.64"/></clipPath><linearGradient id="linear-gradient-5" x1="-110.76" y1="633.25" x2="-106.7" y2="633.25" gradientTransform="matrix(-22.52, 0, 0, 22.52, -2296.88, -14070.02)" gradientUnits="userSpaceOnUse"><stop offset="0" stop-color="#2cc1ed"/><stop offset="0.82" stop-color="#3083b4"/><stop offset="1" stop-color="#2e72a5"/></linearGradient><clipPath id="clip-path-6"><polygon class="cls-1" points="196.62 162.86 196.62 268.42 288.05 215.64 288.05 110.07 196.62 162.86"/></clipPath><linearGradient id="linear-gradient-6" x1="-140.1" y1="639.34" x2="-136.04" y2="639.34" gradientTransform="matrix(0, -24.62, -24.62, 0, 15985.87, -3214.89)" gradientUnits="userSpaceOnUse"><stop offset="0" stop-color="#2cc1ed"/><stop offset="1" stop-color="#2e72a5"/></linearGradient></defs><title>Asset 1</title><g id="Layer_2" data-name="Layer 2"><g id="Layer_1-2" data-name="Layer 1"><polygon class="cls-2" points="56.46 80.93 56.46 80.93 95.85 103.67 196.61 45.51 297.38 103.68 297.38 103.68 297.38 103.68 297.38 103.68 297.38 103.69 336.79 80.93 336.79 80.93 196.62 0 56.46 80.93"/><polygon class="cls-2" points="196.62 278.2 196.61 278.21 196.61 278.21 196.61 278.21 95.85 220.03 95.85 161.86 95.85 103.68 95.85 103.67 56.46 80.93 56.46 80.93 56.46 242.78 196.62 323.71 196.62 278.2"/><polygon class="cls-2" points="297.38 103.69 297.38 220.03 196.62 278.2 196.62 323.71 336.79 242.78 336.79 161.86 336.79 80.93 336.79 80.93 297.38 103.69"/><polygon class="cls-2" points="196.62 161.85 297.38 103.68 297.38 103.68 196.61 45.51 95.85 103.67 196.62 161.85"/><polygon class="cls-2" points="196.62 161.85 297.38 103.68 297.38 103.68 196.61 45.51 95.85 103.67 196.62 161.85"/><polygon class="cls-2" points="196.61 161.86 196.62 161.85 95.85 103.67 95.85 103.68 196.61 161.86"/><polygon class="cls-2" points="196.61 161.86 196.62 161.85 95.85 103.67 95.85 103.68 196.61 161.86"/><polygon class="cls-2" points="196.61 161.86 95.85 103.68 95.85 161.86 95.85 220.03 196.61 278.21 196.61 278.21 196.61 161.86"/><polygon class="cls-2" points="196.61 161.86 95.85 103.68 95.85 161.86 95.85 220.03 196.61 278.21 196.61 278.21 196.61 161.86"/><polygon class="cls-2" points="196.62 161.85 196.62 161.86 297.38 103.69 297.38 103.68 297.38 103.68 297.38 103.68 196.62 161.85"/><polygon class="cls-2" points="196.62 161.85 196.62 161.86 297.38 103.69 297.38 103.68 297.38 103.68 297.38 103.68 196.62 161.85"/><polygon class="cls-2" points="196.62 161.86 196.62 161.85 196.61 161.86 196.61 278.21 196.61 278.21 196.62 278.2 196.62 161.86"/><polygon class="cls-2" points="196.62 161.86 196.62 161.85 196.61 161.86 196.61 278.21 196.61 278.21 196.62 278.2 196.62 161.86"/><polygon class="cls-2" points="196.62 161.86 196.62 278.2 297.38 220.03 297.38 103.69 196.62 161.86"/><polygon class="cls-2" points="196.62 161.86 196.62 278.2 297.38 220.03 297.38 103.69 196.62 161.86"/><g class="cls-3"><rect class="cls-4" x="69.46" y="16" width="254.35" height="146.86"/></g><g class="cls-5"><rect class="cls-6" x="7.98" y="102.79" width="250.14" height="193.55" transform="translate(-99.54 258.17) rotate(-70.45)"/></g><g class="cls-7"><rect class="cls-8" x="157.11" y="73.05" width="206.23" height="253.04" transform="translate(-58.91 124.06) rotate(-24.17)"/></g><g class="cls-9"><rect class="cls-10" x="105.2" y="57.29" width="182.85" height="105.57"/></g><g class="cls-11"><rect class="cls-12" x="62.62" y="124.67" width="176.57" height="129.16" transform="translate(-70.85 286.26) rotate(-75.06)"/></g><g class="cls-13"><rect class="cls-14" x="167.83" y="98.23" width="149.01" height="182.03" transform="translate(-56.76 117.94) rotate(-24.58)"/></g></g></g></svg>